<?xml version="1.0" encoding="UTF-8"?>
<svg id="svg27" xmlns="http://www.w3.org/2000/svg" xmlns:xlink="http://www.w3.org/1999/xlink" viewBox="0 0 283.46 283.46">
  <defs>
    <style>
      .cls-1 {
        fill: url(#linear-gradient-4);
      }

      .cls-1, .cls-2, .cls-3, .cls-4, .cls-5, .cls-6, .cls-7, .cls-8 {
        fill-rule: evenodd;
      }

      .cls-9 {
        fill: url(#linear-gradient-2);
      }

      .cls-10 {
        fill: #37474f;
      }

      .cls-2 {
        fill: url(#linear-gradient-9);
      }

      .cls-3 {
        fill: url(#linear-gradient-6);
      }

      .cls-4 {
        fill: url(#linear-gradient-5);
      }

      .cls-5 {
        fill: #14f195;
      }

      .cls-11 {
        fill: url(#linear-gradient);
      }

      .cls-6 {
        fill: url(#linear-gradient-7);
      }

      .cls-7 {
        fill: url(#linear-gradient-8);
      }

      .cls-8 {
        fill: url(#linear-gradient-3);
      }
    </style>
    <linearGradient id="linear-gradient" x1="0" y1="4178.56" x2="283.46" y2="4178.56" gradientTransform="translate(0 -4036.83)" gradientUnits="userSpaceOnUse">
      <stop offset=".08" stop-color="#9945ff"/>
      <stop offset=".3" stop-color="#8752f3"/>
      <stop offset=".5" stop-color="#5497d5"/>
      <stop offset=".6" stop-color="#43b4ca"/>
      <stop offset=".72" stop-color="#28e0b9"/>
      <stop offset=".97" stop-color="#19fb9b"/>
    </linearGradient>
    <linearGradient id="linear-gradient-2" x1="1401.55" y1="-574.91" x2="1547.91" y2="-721.27" gradientTransform="translate(-924.25 -289.75) scale(.75 -.75)" gradientUnits="userSpaceOnUse">
      <stop offset="0" stop-color="#000" stop-opacity=".2"/>
      <stop offset="1" stop-color="#36343d" stop-opacity="0"/>
    </linearGradient>
    <linearGradient id="linear-gradient-3" x1="144.94" y1="4211.88" x2="152.06" y2="4211.88" xlink:href="#linear-gradient"/>
    <linearGradient id="linear-gradient-4" x1="148.15" y1="4217.28" x2="167.94" y2="4217.28" xlink:href="#linear-gradient"/>
    <linearGradient id="linear-gradient-5" x1="152.4" y1="4223" x2="166.79" y2="4223" xlink:href="#linear-gradient"/>
    <linearGradient id="linear-gradient-6" x1="150.47" y1="4201.54" x2="156.99" y2="4201.54" xlink:href="#linear-gradient"/>
    <linearGradient id="linear-gradient-7" x1="145.16" y1="4204.18" x2="147.9" y2="4204.18" xlink:href="#linear-gradient"/>
    <linearGradient id="linear-gradient-8" x1="130.66" y1="4183.72" x2="165.74" y2="4183.72" xlink:href="#linear-gradient"/>
    <linearGradient id="linear-gradient-9" x1="156.47" y1="4199.29" x2="165.19" y2="4199.29" xlink:href="#linear-gradient"/>
  </defs>
  <circle id="circle9" class="cls-10" cx="141.73" cy="141.73" r="141.73"/>
  <circle class="cls-11" cx="141.73" cy="141.73" r="141.73"/>
  <path id="rect913" class="cls-9" d="m183.73,111.82l-1.67,1.67-1.27,1.27v8.95h-8.95l-74.54,74.54,57.08,57.08,23.46,23.46c41.57-10.95,75.92-40.18,93.39-79.46l-30.43-30.43-57.08-57.08Z"/>
  <path id="path856" d="m147.74,123.71v-33.05l33.05,33.05m-75.11-42.06c-6.67,0-12.02,5.35-12.02,12.02v96.14c0,6.64,5.38,12.02,12.02,12.02h72.1c6.64,0,12.02-5.38,12.02-12.02v-72.1l-36.05-36.05h-48.07Z"/>
  <g>
    <g id="right">
      <path class="cls-5" d="m170.2,161.76c-1.17.64-2.39,2.24-2.48,5.28-.5.17-.73.51-2.01-1.05,1.5,2.28,2.5,3.06,2.99,2.33-.3-3.24.2-5.42,1.5-6.56h0Z"/>
      <path class="cls-5" d="m175.28,164.97l-.31,5.97-1.35-1.51c.62,1.03,1.27,2.25,1.94,3.23l-.27-7.69h0Z"/>
      <path class="cls-5" d="m171.54,177.43l3.49,9.29c.11-1.93.35-4.78.74-8.55-.35,1.81-.7,3.61-1.06,5.42l-3.18-6.16h0,0Z"/>
      <path class="cls-5" d="m166.06,176.48c1.52,5.17,3.03,10.35,4.56,15.52l1.93-3.26c-.25.23-1.67,1.42-1.73,1.47,0,0-1.59-3.86-4.76-13.73h0Z"/>
      <path class="cls-5" d="m171.94,151.82c-5.31-8.29-11.59-25.96-.24-15.92-1.04-3.84-2.89-5.41-4.89-7.1,1.82,1.96,3.02,3.46,3.48,4.99-1.06-1.02-2.82-1.87-4.2-1.77.16-.6.74-.99,1.16-1.14-3.04.14-3.77,3.71-1.88,9.14-1.38-1.5-2.27-3.5-3.05-5.42.37,4.43,6.36,13.69,9.62,17.22h0Z"/>
      <path class="cls-5" d="m166.25,152.19c11.98,1.04,20.89,4.71,20.89,8.08,0,4.35-7.8,5.93-10.88,7.15,8.25-1.47,12.88-3.54,12.88-7.06s-9.82-7.39-22.88-8.18h0Z"/>
    </g>
    <g id="left">
      <path class="cls-8" d="m145.68,186.72l6.38-16.85-2.66-6.5-.81,6.37-3.65,8.44c.36,2.87.55,5.66.74,8.55h0Z"/>
      <path class="cls-1" d="m161.46,169.73l-1.1-.82-7.58,2.11-4.63,17.71c.65,1.09,1.29,2.17,1.94,3.26l5.77-19.68,4.49-3.4,7.59,2.1-6.49-1.28h.01Z"/>
      <path class="cls-4" d="m159.98,174.8c1.06.24,1.78.08,2.15-.5-.73.41-1.49.36-2.17-.14-.75.59-1.29.45-2.13.14l-.5-.2c-.28-.1-.61-.22-.97-.33l-3.96,20.49c2.68,1.54,5.23,2.89,7.96,4.3l6.43-3.33c-2.23.83-4.14,1.53-6.42,2.38l-.39-22.81h0Z"/>
      <path class="cls-3" d="m156.78,161.42c-.51-.06-7.24-.26-6.19.59,2.17,1.72,1.18,5.74,1.45,5.94,1.47,1.11,5.98-6.42,4.74-6.53h0Z"/>
      <polygon class="cls-6" points="145.16 172.66 147.9 167.72 147.79 162.03 145.43 164.97 145.24 170.6 145.22 170.91 145.21 171.25 145.16 172.66"/>
      <path class="cls-7" d="m164.74,148.43c-3.82.45-7.78,1.08-11.49,2.07-1.55.41-3.12.91-4.59,1.52-.13.05-.04.02.04,0,2.6-.37,5.3-.64,7.92-.71,1.13-.03,2.49-.03,3.6.14.1,0,.19.03.29.05-8.52.53-44.05,6.1-16.96,15.91-8.25-1.47-12.82-3.54-12.88-7.06-.06-4.67,10.84-7.05,14.67-7.78.43-.08.86-.23,1.28-.34.16-.04.22-.06.37-.13.34-.15.17-.14-.09-.14-.21,0-.64,0-.46-.31.09-.15.21-.33.31-.48,1.16-1.83,2.12-3.77,3.01-5.73.13-.29,3.4-8.36,4.58-11.04.13-.3.27-.62.41-.91.17-.35.83-1.72,1.08-2.16.79-1.44,1.89-3.13,3.29-4.11,2.26-1.57,4.58-.72,6.62.72-1.82-.97-4.1-1.53-5.69.12-.66.68-1.05,1.63-1.26,2.52-.09.36.13.37-.11.86-.11.22-.1.31-.12.55-.19,2,.1,4.18.56,6.14-.92-.63-1.47-1.22-1.64-1.78-.3,2.69,1.13,4.29,4.29,4.81-4.37.82-7.31,3.23-8.84,7.22,3.89-.79,7.91-.79,11.81,0h0v.04h0Z"/>
      <path class="cls-2" d="m156.96,166.77c1.11-.05.64-.89.87-2.04-.32.32-2.24,2.04-.87,2.04h0Zm2.23-2.08c-.99,1.06-.51,2.38,1.03,2.42,1.33.03,3.16-.52,3.71-.47.21.02.39.16.48.36s.06.44-.06.62c.59-.3.93-.99.82-1.68-.2-1.25-1.04-.98-1.87-1.71-1.81-1.87-1.73-5.92-1.99-6.93-.07.31-.12.74-.16,1.23-.19,1.87-.41,4.73-1.95,6.16h-.01Z"/>
    </g>
  </g>
</svg>